<svg width="12" height="12" viewBox="0 0 12 12" fill="none" xmlns="http://www.w3.org/2000/svg">
<path d="M1.19789 7.81106L5.63061 3.15207C5.68338 3.09677 5.74054 3.0577 5.80211 3.03484C5.86368 3.01161 5.92964 3 6 3C6.07036 3 6.13632 3.01161 6.19789 3.03484C6.25945 3.0577 6.31662 3.09677 6.36939 3.15207L10.8153 7.81106C10.9384 7.94009 11 8.10138 11 8.29493C11 8.48848 10.934 8.65438 10.8021 8.79263C10.6702 8.93087 10.5163 9 10.3404 9C10.1645 9 10.0106 8.93087 9.87863 8.79263L6 4.72811L2.12137 8.79263C1.99824 8.92166 1.84661 8.98617 1.66649 8.98617C1.48601 8.98617 1.32981 8.91705 1.19789 8.7788C1.06596 8.64055 0.999999 8.47926 0.999999 8.29493C0.999999 8.1106 1.06596 7.94931 1.19789 7.81106Z" fill="#F1EEE0"/>
</svg>
