<svg width="12" height="12" viewBox="0 0 12 12" fill="none" xmlns="http://www.w3.org/2000/svg">
<path d="M10.8021 4.18894L6.36939 8.84793C6.31662 8.90323 6.25946 8.9423 6.19789 8.96516C6.13632 8.98839 6.07036 9 6 9C5.92964 9 5.86368 8.98839 5.80211 8.96516C5.74055 8.9423 5.68338 8.90323 5.63061 8.84793L1.1847 4.18894C1.06157 4.05991 1 3.89862 1 3.70507C1 3.51152 1.06596 3.34562 1.19789 3.20737C1.32982 3.06913 1.48373 3 1.65963 3C1.83553 3 1.98945 3.06913 2.12137 3.20737L6 7.27189L9.87863 3.20737C10.0018 3.07834 10.1534 3.01383 10.3335 3.01383C10.514 3.01383 10.6702 3.08295 10.8021 3.2212C10.934 3.35945 11 3.52074 11 3.70507C11 3.8894 10.934 4.05069 10.8021 4.18894Z" fill="#F1EEE0"/>
</svg>
