<svg width="182" height="27" viewBox="0 0 182 27" fill="none" xmlns="http://www.w3.org/2000/svg">
<path d="M49.6474 12.2275L68.8773 12.2275L67.1253 13.2158C66.3756 13.6388 65.5294 13.861 64.6687 13.861L49.6474 13.861L49.6474 15.4944C49.6474 15.6994 49.4812 15.8656 49.2762 15.8656C49.0712 15.8656 48.905 15.6994 48.905 15.4944L48.905 13.564L43.8562 13.564L43.8562 12.5245L48.905 12.5245L48.905 10.6684C48.905 10.4633 49.0712 10.2971 49.2762 10.2971C49.4812 10.2971 49.6474 10.4633 49.6474 10.6684L49.6474 12.2275Z" fill="#25241F"/>
<path d="M49.6474 12.2275L68.8773 12.2275L67.1253 13.2158C66.3756 13.6388 65.5294 13.861 64.6687 13.861L49.6474 13.861M49.6474 12.2275L49.6474 13.861M49.6474 12.2275L49.6474 10.6684C49.6474 10.4633 49.4812 10.2971 49.2762 10.2971C49.0712 10.2971 48.905 10.4633 48.905 10.6684L48.905 12.5245M49.6474 13.861L49.6474 15.4944C49.6474 15.6994 49.4812 15.8656 49.2762 15.8656C49.0712 15.8656 48.905 15.6994 48.905 15.4944L48.905 13.564M48.905 13.564L48.905 12.5245M48.905 13.564L43.8562 13.564L43.8562 12.5245L48.905 12.5245" stroke="#25241F"/>
<ellipse cx="43.2622" cy="13.0442" rx="1.26219" ry="1.26219" transform="rotate(90 43.2622 13.0442)" fill="#25241F"/>
<circle cx="49.2761" cy="15.4944" r="0.742466" transform="rotate(90 49.2761 15.4944)" fill="#25241F"/>
<circle cx="49.2762" cy="10.7426" r="0.742466" transform="rotate(90 49.2762 10.7426)" fill="#25241F"/>
<path d="M29.2298 12.2275L9.99994 12.2275L11.752 13.2158C12.5016 13.6387 13.3478 13.8609 14.2086 13.8609L29.2298 13.8609L29.2298 15.4943C29.2298 15.6993 29.396 15.8656 29.601 15.8656C29.8061 15.8656 29.9723 15.6993 29.9723 15.4943L29.9723 13.5639L35.0211 13.5639L35.0211 12.5245L29.9723 12.5245L29.9723 10.6683C29.9723 10.4633 29.8061 10.2971 29.601 10.2971C29.396 10.2971 29.2298 10.4633 29.2298 10.6683L29.2298 12.2275Z" fill="#25241F"/>
<path d="M29.2298 12.2275L9.99994 12.2275L11.752 13.2158C12.5016 13.6387 13.3478 13.8609 14.2086 13.8609L29.2298 13.8609M29.2298 12.2275L29.2298 13.8609M29.2298 12.2275L29.2298 10.6683C29.2298 10.4633 29.396 10.2971 29.601 10.2971C29.8061 10.2971 29.9723 10.4633 29.9723 10.6683L29.9723 12.5245M29.2298 13.8609L29.2298 15.4943C29.2298 15.6993 29.396 15.8656 29.601 15.8656C29.8061 15.8656 29.9723 15.6993 29.9723 15.4943L29.9723 13.5639M29.9723 13.5639L29.9723 12.5245M29.9723 13.5639L35.0211 13.5639L35.0211 12.5245L29.9723 12.5245" stroke="#25241F"/>
<ellipse cx="1.26219" cy="1.26219" rx="1.26219" ry="1.26219" transform="matrix(-3.49015e-08 1 1 5.25213e-08 34.3528 11.782)" fill="#25241F"/>
<circle cx="0.742466" cy="0.742466" r="0.742466" transform="matrix(-3.49015e-08 1 1 5.25213e-08 28.8586 14.7518)" fill="#25241F"/>
<circle cx="0.742466" cy="0.742466" r="0.742466" transform="matrix(-3.49015e-08 1 1 5.25213e-08 28.8586 10.0001)" fill="#25241F"/>
<path d="M133.23 12.2275L114 12.2275L115.752 13.2158C116.502 13.6388 117.348 13.861 118.209 13.861L133.23 13.861L133.23 15.4944C133.23 15.6994 133.396 15.8656 133.601 15.8656C133.806 15.8656 133.972 15.6994 133.972 15.4944L133.972 13.564L139.021 13.564L139.021 12.5245L133.972 12.5245L133.972 10.6684C133.972 10.4633 133.806 10.2971 133.601 10.2971C133.396 10.2971 133.23 10.4633 133.23 10.6684L133.23 12.2275Z" fill="#25241F"/>
<path d="M133.23 12.2275L114 12.2275L115.752 13.2158C116.502 13.6388 117.348 13.861 118.209 13.861L133.23 13.861M133.23 12.2275L133.23 13.861M133.23 12.2275L133.23 10.6684C133.23 10.4633 133.396 10.2971 133.601 10.2971C133.806 10.2971 133.972 10.4633 133.972 10.6684L133.972 12.5245M133.23 13.861L133.23 15.4944C133.23 15.6994 133.396 15.8656 133.601 15.8656C133.806 15.8656 133.972 15.6994 133.972 15.4944L133.972 13.564M133.972 13.564L133.972 12.5245M133.972 13.564L139.021 13.564L139.021 12.5245L133.972 12.5245" stroke="#25241F"/>
<ellipse cx="1.26219" cy="1.26219" rx="1.26219" ry="1.26219" transform="matrix(-3.49015e-08 1 1 5.25213e-08 138.353 11.782)" fill="#25241F"/>
<circle cx="0.742466" cy="0.742466" r="0.742466" transform="matrix(-3.49015e-08 1 1 5.25213e-08 132.859 14.7519)" fill="#25241F"/>
<circle cx="0.742466" cy="0.742466" r="0.742466" transform="matrix(-3.49015e-08 1 1 5.25213e-08 132.859 10.0001)" fill="#25241F"/>
<path d="M154.647 12.2275L173.877 12.2275L172.125 13.2158C171.376 13.6388 170.529 13.861 169.669 13.861L154.647 13.861L154.647 15.4944C154.647 15.6994 154.481 15.8656 154.276 15.8656C154.071 15.8656 153.905 15.6994 153.905 15.4944L153.905 13.564L148.856 13.564L148.856 12.5245L153.905 12.5245L153.905 10.6684C153.905 10.4633 154.071 10.2971 154.276 10.2971C154.481 10.2971 154.647 10.4633 154.647 10.6684L154.647 12.2275Z" fill="#25241F"/>
<path d="M154.647 12.2275L173.877 12.2275L172.125 13.2158C171.376 13.6388 170.529 13.861 169.669 13.861L154.647 13.861M154.647 12.2275L154.647 13.861M154.647 12.2275L154.647 10.6684C154.647 10.4633 154.481 10.2971 154.276 10.2971C154.071 10.2971 153.905 10.4633 153.905 10.6684L153.905 12.5245M154.647 13.861L154.647 15.4944C154.647 15.6994 154.481 15.8656 154.276 15.8656C154.071 15.8656 153.905 15.6994 153.905 15.4944L153.905 13.564M153.905 13.564L153.905 12.5245M153.905 13.564L148.856 13.564L148.856 12.5245L153.905 12.5245" stroke="#25241F"/>
<ellipse cx="148.262" cy="13.0442" rx="1.26219" ry="1.26219" transform="rotate(90 148.262 13.0442)" fill="#25241F"/>
<circle cx="154.276" cy="15.4944" r="0.742466" transform="rotate(90 154.276 15.4944)" fill="#25241F"/>
<circle cx="154.276" cy="10.7426" r="0.742466" transform="rotate(90 154.276 10.7426)" fill="#25241F"/>
<path d="M91.5 1C98.4036 1 104 6.59644 104 13.5C104 20.4036 98.4036 26 91.5 26C84.5964 26 79 20.4036 79 13.5C79 6.59644 84.5964 1 91.5 1ZM91.5 3.08301C85.7471 3.08303 81.083 7.74705 81.083 13.5C81.083 19.2529 85.7471 23.917 91.5 23.917C97.253 23.917 101.917 19.253 101.917 13.5C101.917 7.74703 97.253 3.08301 91.5 3.08301Z" fill="#25241F"/>
<circle cx="91.5" cy="13.5" r="4.16667" fill="#25241F"/>
<path d="M84.625 5.16667V22.25M89.2083 2.875V24.125M94.2083 2.875V24.125M98.375 5.16667V22.25" stroke="#25241F"/>
</svg>
