<svg width="25" height="25" viewBox="0 0 25 25" fill="none" xmlns="http://www.w3.org/2000/svg">
<g clip-path="url(#clip0_2003_100)">
<path d="M12.5 0C19.4036 0 25 5.59644 25 12.5C25 19.4036 19.4036 25 12.5 25C5.59644 25 0 19.4036 0 12.5C0 5.59644 5.59644 0 12.5 0ZM12.5 2.08301C6.74705 2.08303 2.08301 6.74705 2.08301 12.5C2.08302 18.2529 6.74706 22.917 12.5 22.917C18.253 22.917 22.917 18.253 22.917 12.5C22.917 6.74703 18.253 2.08301 12.5 2.08301Z" fill="#25241F"/>
<circle cx="12.5" cy="12.5" r="4.16667" fill="#25241F"/>
<path d="M5.625 4.16667V21.25M10.2083 1.875V23.125M15.2083 1.875V23.125M19.375 4.16667V21.25" stroke="#25241F"/>
</g>
<defs>
<clipPath id="clip0_2003_100">
<rect width="25" height="25" fill="white"/>
</clipPath>
</defs>
</svg>
