<svg width="25" height="25" viewBox="0 0 25 25" fill="none" xmlns="http://www.w3.org/2000/svg">
<g clip-path="url(#clip0_2003_108)">
<path d="M8.92871 6.35718C13.8598 6.35725 17.8574 10.3548 17.8574 15.2859C17.8573 20.2169 13.8597 24.2145 8.92871 24.2146C3.99764 24.2146 7.62811e-05 20.2169 0 15.2859C0 10.3548 3.9976 6.35718 8.92871 6.35718ZM8.92871 8.14331C4.98382 8.14331 1.78613 11.341 1.78613 15.2859C1.78621 19.2307 4.98387 22.4285 8.92871 22.4285C12.8735 22.4284 16.0712 19.2307 16.0713 15.2859C16.0713 11.341 12.8735 8.14338 8.92871 8.14331Z" fill="#25241F"/>
<circle cx="8.9286" cy="15.2857" r="6.78571" fill="#25241F"/>
<path d="M16.0719 1C21.0028 1.00023 25.0006 4.99774 25.0006 9.92871C25.0005 14.4261 21.6744 18.145 17.3483 18.7646C17.6432 18.1459 17.8686 17.4882 18.0153 16.8008C21.015 15.954 23.2144 13.1995 23.2145 9.92871C23.2145 5.98396 20.0166 2.78636 16.0719 2.78613C13.563 2.78613 11.3577 4.08065 10.0836 6.03711C9.82072 6.01382 9.55472 6 9.28577 6C8.85171 6 8.42495 6.03194 8.00745 6.0918C9.44262 3.08091 12.5143 1 16.0719 1Z" fill="#25241F"/>
<path d="M16.0711 3.14282C19.8188 3.14282 22.8572 6.18131 22.8572 9.92896C22.8571 12.974 20.8511 15.5505 18.0887 16.4094C18.1691 15.9277 18.2146 15.4335 18.2147 14.929C18.2147 10.4037 14.8475 6.66608 10.4822 6.0813C11.7061 4.30666 13.7523 3.14294 16.0711 3.14282Z" fill="#25241F"/>
</g>
<defs>
<clipPath id="clip0_2003_108">
<rect width="25" height="25" fill="white"/>
</clipPath>
</defs>
</svg>
