<svg width="25" height="25" viewBox="0 0 25 25" fill="none" xmlns="http://www.w3.org/2000/svg">
<g clip-path="url(#clip0_2003_74)">
<path d="M6.04134 16.9838L19.8487 3.59933L19.2787 5.52841C19.0347 6.35386 18.5818 7.10236 17.9638 7.70146L7.17825 18.1566L8.31515 19.3294C8.45785 19.4767 8.4542 19.7117 8.30698 19.8544C8.15977 19.9971 7.92475 19.9934 7.78205 19.8462L6.43843 18.4602L2.81332 21.9742L2.08984 21.2279L5.71495 17.7138L4.42301 16.381C4.28031 16.2338 4.28396 15.9988 4.43117 15.8561C4.57839 15.7134 4.81341 15.7171 4.95611 15.8643L6.04134 16.9838Z" fill="#25241F"/>
<path d="M6.04134 16.9838L19.8487 3.59933L19.2787 5.52841C19.0347 6.35386 18.5818 7.10236 17.9638 7.70146L7.17825 18.1566M6.04134 16.9838L7.17825 18.1566M6.04134 16.9838L4.95611 15.8643C4.81341 15.7171 4.57839 15.7134 4.43117 15.8561C4.28396 15.9988 4.28031 16.2338 4.42301 16.381L5.71495 17.7138M7.17825 18.1566L8.31515 19.3294C8.45785 19.4767 8.4542 19.7117 8.30698 19.8544C8.15977 19.9971 7.92475 19.9934 7.78205 19.8462L6.43843 18.4602M6.43843 18.4602L5.71495 17.7138M6.43843 18.4602L2.81332 21.9742L2.08984 21.2279L5.71495 17.7138" stroke="#25241F"/>
<ellipse cx="2.0251" cy="22.0144" rx="1.26219" ry="1.26219" transform="rotate(45.8911 2.0251 22.0144)" fill="#25241F"/>
<circle cx="8.04855" cy="19.5878" r="0.742466" transform="rotate(45.8911 8.04855 19.5878)" fill="#25241F"/>
<circle cx="4.74124" cy="16.176" r="0.742466" transform="rotate(45.8911 4.74124 16.176)" fill="#25241F"/>
<path d="M18.9561 16.9753L5.13952 3.60038L5.71093 5.52906C5.95544 6.35435 6.40886 7.10254 7.02731 7.70121L17.82 18.1489L16.6839 19.3226C16.5413 19.4699 16.5452 19.7049 16.6925 19.8475C16.8398 19.9901 17.0748 19.9863 17.2174 19.839L18.5601 18.452L22.1876 21.9635L22.9106 21.2167L19.283 17.7051L20.574 16.3715C20.7167 16.2242 20.7128 15.9891 20.5655 15.8465C20.4182 15.7039 20.1832 15.7077 20.0406 15.8551L18.9561 16.9753Z" fill="#25241F"/>
<path d="M18.9561 16.9753L5.13952 3.60038L5.71093 5.52906C5.95544 6.35435 6.40886 7.10254 7.02731 7.70121L17.82 18.1489M18.9561 16.9753L17.82 18.1489M18.9561 16.9753L20.0406 15.8551C20.1832 15.7077 20.4182 15.7039 20.5655 15.8465C20.7128 15.9891 20.7167 16.2242 20.574 16.3715L19.283 17.7051M17.82 18.1489L16.6839 19.3226C16.5413 19.4699 16.5452 19.7049 16.6925 19.8475C16.8398 19.9901 17.0748 19.9863 17.2174 19.839L18.5601 18.452M18.5601 18.452L19.283 17.7051M18.5601 18.452L22.1876 21.9635L22.9106 21.2167L19.283 17.7051" stroke="#25241F"/>
<circle cx="1.26219" cy="1.26219" r="1.26219" transform="matrix(-0.69553 0.718497 0.718497 0.69553 22.9469 20.2185)" fill="#25241F"/>
<circle cx="0.742466" cy="0.742466" r="0.742466" transform="matrix(-0.69553 0.718497 0.718497 0.69553 16.9336 18.5309)" fill="#25241F"/>
<circle cx="0.742466" cy="0.742466" r="0.742466" transform="matrix(-0.69553 0.718497 0.718497 0.69553 20.2386 15.1168)" fill="#25241F"/>
</g>
<defs>
<clipPath id="clip0_2003_74">
<rect width="25" height="25" fill="white"/>
</clipPath>
</defs>
</svg>
