<svg width="218" height="52" viewBox="0 0 218 52" fill="none" xmlns="http://www.w3.org/2000/svg">
<path d="M191 5.10803C186 5.10803 188 2.60803 188.5 0.959999C189.78 0.277334 193.781 0 195.232 0C196.085 0 196.512 0.32 196.512 0.959999V39.296C196.512 40.192 196.661 40.832 196.96 41.216C197.301 41.6 197.604 42.108 198.5 42.108C198.543 43.2174 198.56 43.7547 197.92 44.352C197.322 44.9493 196.426 45.248 195.232 45.248C194.037 45.248 193.141 44.8853 192.544 44.16C191.989 43.4347 191.712 42.24 191.712 40.576L191 5.10803Z" fill="#25241F"/>
<path d="M191 40.2411C191 41.9684 190.138 43.305 188.415 44.2509C186.692 45.1556 184.485 45.608 181.792 45.608C179.154 45.608 177.027 45.0939 175.412 44.0658C173.85 42.9965 173.069 41.5777 173.069 39.8093V18.4651H170.5C170.123 17.3959 170 16.779 170 15.9976C170 15.1751 170.35 14.7638 171.05 14.7638H173.231L174.362 8.96514C174.577 8.06038 175.573 7.608 177.35 7.608C177.888 7.608 178.481 7.64913 179.127 7.73138V14.7638H186.154L190.354 14.4554C190.623 15.5247 190.758 16.4706 190.758 17.2931C190.758 18.0745 190.408 18.4651 189.708 18.4651H179.127V39.069C179.127 39.9327 179.396 40.6112 179.935 41.1048C180.527 41.5571 181.254 41.7833 182.115 41.7833C184.108 41.7833 184.104 40.7757 184.104 38.7606L181.862 29.7058C182.562 29.5824 183.262 29.5208 183.962 29.5208C184.715 29.5208 185.415 29.603 186.062 29.7675C187.354 30.0143 188 30.4872 188 31.1863L191 40.2411Z" fill="#25241F"/>
<path d="M173 40.2411C173 41.9684 172.138 43.305 170.415 44.2509C168.692 45.1556 166.485 45.608 163.792 45.608C161.154 45.608 159.027 45.0939 157.412 44.0658C155.85 42.9965 155.069 41.5777 155.069 39.8093V18.4651L152.565 18.7736C152.188 17.7043 152 16.779 152 15.9976C152 15.1751 152.35 14.7638 153.05 14.7638H155.231L156.362 8.96514C156.577 8.06038 157.573 7.608 159.35 7.608C159.888 7.608 160.481 7.64913 161.127 7.73138V14.7638H172.758C173.027 15.8331 172.758 16.4706 172.758 17.2931C172.758 18.0745 172.408 18.4651 171.708 18.4651H161.127V39.069C161.127 39.9327 161.396 40.6112 161.935 41.1048C162.527 41.5571 163.254 41.7833 164.115 41.7833C166.108 41.7833 166.104 40.7757 166.104 38.7606L163.862 29.7058C164.562 29.5824 165.262 29.5208 165.962 29.5208C166.715 29.5208 167.415 29.603 168.062 29.7675C169.354 30.0143 170 30.4872 170 31.1863L173 40.2411Z" fill="#25241F"/>
<path d="M149.333 16.9511C149.333 16.0361 146.987 14.327 146.294 13.8237C145.602 13.2747 144.736 13.0002 143.697 13.0002C141.561 13.0002 140.494 15.7093 140.494 17.1276V26.9413L144.649 24.4707C146.439 23.4185 149.333 20.2453 149.333 16.9511ZM134 38.8139V17.3335C134 12.8498 137.319 10.608 143.957 10.608C150.652 10.608 154 13.1243 154 18.157C154 20.1701 153.538 22.023 152.615 23.7158C151.691 25.4087 150.421 26.6897 148.805 27.559L140.494 32.0884V38.3335C140.494 40.2551 141.619 41.2158 143.87 41.2158C146.179 41.2158 147 40.4838 147 38.3335V36.608L146.074 31.1864C146.824 31.0492 147.574 30.9805 148.325 30.9805C149.133 30.9805 149.883 31.0721 150.576 31.2551C151.961 31.5296 152.654 32.0557 152.654 32.8335L153.654 39.7747C153.654 41.6047 152.73 43.0459 150.883 44.0982C149.094 45.1047 146.698 45.608 143.697 45.608C137.232 45.608 134 43.3433 134 38.8139Z" fill="#25241F"/>
<path d="M213.333 16.9511C213.333 16.0361 210.987 14.327 210.294 13.8237C209.602 13.2747 208.736 13.0002 207.697 13.0002C205.561 13.0002 204.494 15.7093 204.494 17.1276V26.9413L208.649 24.4707C210.439 23.4185 213.333 20.2453 213.333 16.9511ZM198 38.8139V17.3335C198 12.8498 201.319 10.608 207.957 10.608C214.652 10.608 218 13.1243 218 18.157C218 20.1701 217.538 22.023 216.615 23.7158C215.691 25.4087 214.421 26.6897 212.805 27.559L204.494 32.0884V38.3335C204.494 40.2551 205.619 41.2158 207.87 41.2158C210.179 41.2158 211 40.4838 211 38.3335V36.608L210.074 31.1864C210.824 31.0492 211.574 30.9805 212.325 30.9805C213.133 30.9805 213.883 31.0721 214.576 31.2551C215.961 31.5296 216.654 32.0557 216.654 32.8335L217.654 39.7747C217.654 41.6047 216.73 43.0459 214.883 44.0982C213.094 45.1047 210.698 45.608 207.697 45.608C201.232 45.608 198 43.3433 198 38.8139Z" fill="#25241F"/>
<path d="M110.5 4.608C109.049 4.608 106.359 5.74921 106.359 7.808V38.6747L106.5 49.108C105.5 50.608 104.721 52.4413 102.5 51.108C101.64 51.108 99.9885 48.8969 99.9885 48.1413L94.9885 8.07467C94.9885 7.09689 94.7735 6.408 94.3435 6.008C93.9134 5.56356 93.1339 5.34133 92.005 5.34133C91.9513 4.18578 92.3276 3.27467 93.1339 2.608C93.9403 1.94133 98.2304 1.608 100.004 1.608C101.778 1.608 103.042 2.34133 103.794 3.808C105.891 2.34133 108.041 1.608 110.245 1.608C113.524 1.608 115.782 2.45245 117.018 4.14133C119.222 2.45245 121.534 1.608 123.953 1.608C129.275 1.608 131.936 3.78578 131.936 8.14133C132.084 20.6576 132 38.108 131.5 41.108C131 44.108 128.44 51.108 125 51.108C122.151 51.108 123.566 44.0747 123.566 41.008V8.54134C123.566 6.85245 122.597 4.608 120.5 4.608C118.834 4.608 118.5 6.108 118.228 7.67467V40.608C118 43.608 116.774 47.108 115 47.108C114.14 47.108 114 45.108 113.5 42.608L111.858 8.54134C111.858 6.8742 111.287 4.608 110.5 4.608Z" fill="#25241F"/>
<path d="M76.4725 14.5895C75.4918 14.5895 73.6744 15.3433 73.6744 16.7032V37.091L73.7699 43.9823C73.0943 44.9731 72.5681 46.184 71.0673 45.3033C70.4862 45.3033 69.3705 43.8429 69.3705 43.3438L68.0192 16.8793C68.0192 16.2335 67.8739 15.7785 67.5833 15.5143C67.2928 15.2207 66.7661 15.0739 66.0034 15.0739C65.9671 14.3107 66.2213 13.7089 66.7661 13.2685C67.3109 12.8282 68.1826 12.608 69.3812 12.608C70.5798 12.608 71.4333 13.0924 71.9418 14.0611C73.3583 13.0924 74.8111 12.608 76.3002 12.608C78.5158 12.608 80.0412 13.1658 80.8766 14.2813C82.3657 13.1658 83.9275 12.608 85.5619 12.608C89.1576 12.608 90.9555 14.0464 90.9555 16.9233C91.0556 25.1905 90.9988 36.7167 90.661 38.6982C90.3232 40.6798 88.5938 45.3033 86.2693 45.3033C84.3443 45.3033 85.3003 40.6577 85.3003 38.6322V17.1876C85.3003 16.072 84.6454 14.5895 83.2289 14.5895C82.103 14.5895 81.8776 15.5803 81.6938 16.6151V38.368C81.5398 40.3495 80.7115 42.6613 79.5129 42.6613C78.9318 42.6613 78.8372 41.3403 78.4994 39.689L77.3898 17.1876C77.3898 16.0864 77.0042 14.5895 76.4725 14.5895Z" fill="#25241F"/>
<path d="M61.0314 13.108C59.1083 13.108 58.1468 12.6718 58.1468 10.2463C58.1468 7.82077 59.1083 8.10801 61.0314 8.10801C62.9546 8.10801 63.9161 7.82077 63.9161 10.2463C63.9161 12.6718 62.9546 13.108 61.0314 13.108ZM55.8721 13.6931C55.8721 13.6931 62.1132 14.7782 64.0566 13.6931C66 12.608 62.5807 39.6718 62.5807 39.6718C62.5807 40.5655 62.7372 41.2038 63.0503 41.5867C63.4081 41.9697 64.0566 42.1612 64.9958 42.1612C65.0405 43.2676 64.7275 44.1186 64.0566 44.7144C63.4305 45.3101 62.4913 45.608 61.239 45.608C59.9867 45.608 59.0475 45.2463 58.4214 44.5229C57.84 43.7995 57.5493 42.608 57.5493 40.9484V18.608L55.4696 17.8421C55.1565 16.7357 55 15.7782 55 14.9697C55 14.1186 55.2907 13.6931 55.8721 13.6931Z" fill="#25241F"/>
<path d="M43.2508 40.3497C43.2508 41.9342 43.4317 43.2546 43.7933 44.3109C42.2433 44.509 40.5642 44.608 38.7559 44.608C37.8775 44.608 37.4384 44.3604 37.4384 43.8653L36.7951 17.2129C36.7951 16.5197 36.5885 16.0246 36.1752 15.7275C35.8135 15.4304 35.0902 15.2818 34.0052 15.2818C33.9535 14.4236 34.2893 13.7634 35.0127 13.3012C35.7877 12.8391 36.8726 12.608 38.2676 12.608C40.3343 12.608 41.6259 13.2682 42.1426 14.5886C43.4343 13.2682 45.2684 12.608 47.6451 12.608C51.8817 12.608 54 13.9119 54 16.5197L53 21.4713C53 22.0325 52.38 22.4121 51.14 22.6101C50.52 22.7422 49.8484 22.8082 49.125 22.8082C48.4534 22.8082 47.7817 22.7587 47.11 22.6596C47.265 21.9334 48.3425 21.1577 48.3425 20.3324V17.8071C48.3425 16.7178 47.5676 16.1731 46.0176 16.1731C45.2942 16.1731 44.6226 16.3877 44.0026 16.8168C43.3826 17.246 42.9176 17.7246 42.6076 18.2528L43.2508 40.3497Z" fill="#25241F"/>
<path d="M22.8982 29.499C20.7112 29.499 18.5242 29.606 16.3372 29.8199C15.6892 28.6219 15.3652 27.4453 15.3652 26.2901C15.3652 25.6055 15.9322 25.2632 17.0662 25.2632L32.4969 19.608V39.511C32.4969 40.4095 32.8209 41.7229 33.4689 42.108C34 43.6184 36 45.108 39.9924 46.608C39.9924 46.608 41.2074 48.9662 39.9924 49.608C37.5 50.9245 35.659 50.608 33.4689 50.108C30 49.3161 24.7208 44.9448 23.7488 43.6184C21.4807 44.9448 18.3622 49.608 14.3931 49.608C6.13105 49.608 4.13105 47.7259 4.13105 43.6184L0 7.41098C0 5.27168 1.37702 3.60302 4.13105 2.40501C6.88508 1.207 12.5706 1.608 17.1877 1.608C21.8857 1.608 25.6118 3.16422 28.3658 4.27666C31.1198 5.34631 32.4969 6.75824 32.4969 8.51247V15.8289C32.4969 16.599 31.4438 17.1339 29.3378 17.4334C28.2038 17.6045 27.0698 17.6901 25.9358 17.6901C24.8018 17.6901 23.6678 17.6259 22.5337 17.4975C22.7767 16.4707 22.8982 15.3796 22.8982 14.2244V9.41098C22.8982 8.59805 22.3717 7.97765 21.3187 7.54979C20.2657 7.07914 18.8887 6.84382 17.1877 6.84382C15.4867 6.84382 14.1096 7.07914 13.0566 7.54979C12.0846 7.97765 11.5986 8.59805 11.5986 9.41098V39.0617C11.5986 40.602 13.0566 41.3722 15.9727 41.3722C18.9697 41.3722 21.2782 40.6234 22.8982 39.1259V29.499Z" fill="#25241F"/>
</svg>
