<svg width="64" height="8" viewBox="0 0 64 8" fill="none" xmlns="http://www.w3.org/2000/svg">
<path d="M21.2298 3.22747L1.99994 3.22747L3.75196 4.21579C4.50165 4.63869 5.34782 4.8609 6.20856 4.8609L21.2298 4.8609L21.2298 6.49432C21.2298 6.69935 21.396 6.86556 21.601 6.86556C21.8061 6.86556 21.9723 6.69935 21.9723 6.49432L21.9723 4.56391L27.0211 4.56391L27.0211 3.52446L21.9723 3.52446L21.9723 1.66829C21.9723 1.46327 21.8061 1.29706 21.601 1.29706C21.396 1.29706 21.2298 1.46327 21.2298 1.66829L21.2298 3.22747Z" fill="#F1EEE0"/>
<path d="M21.2298 3.22747L1.99994 3.22747L3.75196 4.21579C4.50165 4.63869 5.34782 4.8609 6.20856 4.8609L21.2298 4.8609M21.2298 3.22747L21.2298 4.8609M21.2298 3.22747L21.2298 1.66829C21.2298 1.46327 21.396 1.29706 21.601 1.29706C21.8061 1.29706 21.9723 1.46327 21.9723 1.66829L21.9723 3.52446M21.2298 4.8609L21.2298 6.49432C21.2298 6.69935 21.396 6.86556 21.601 6.86556C21.8061 6.86556 21.9723 6.69935 21.9723 6.49432L21.9723 4.56391M21.9723 4.56391L21.9723 3.52446M21.9723 4.56391L27.0211 4.56391L27.0211 3.52446L21.9723 3.52446" stroke="#F1EEE0"/>
<path d="M26.8528 4.0437C26.8528 4.46449 27.1938 4.80614 27.6146 4.8064C28.0355 4.8064 28.3773 4.46465 28.3773 4.0437C28.377 3.62297 28.0354 3.28198 27.6146 3.28198C27.194 3.28224 26.8531 3.62313 26.8528 4.0437Z" fill="#F1EEE0" stroke="#F1EEE0"/>
<circle cx="0.742466" cy="0.742466" r="0.5" transform="matrix(-3.49015e-08 1 1 5.25213e-08 20.8586 5.75183)" fill="#F1EEE0" stroke="#F1EEE0" stroke-width="0.484933"/>
<circle cx="0.742466" cy="0.742466" r="0.5" transform="matrix(-3.49015e-08 1 1 5.25213e-08 20.8586 1.00006)" fill="#F1EEE0" stroke="#F1EEE0" stroke-width="0.484933"/>
<path d="M42.6474 3.22747L61.8773 3.22747L60.1253 4.21579C59.3756 4.63869 58.5294 4.8609 57.6687 4.8609L42.6474 4.8609L42.6474 6.49432C42.6474 6.69935 42.4812 6.86555 42.2762 6.86555C42.0712 6.86555 41.905 6.69935 41.905 6.49432L41.905 4.56391L36.8562 4.56391L36.8562 3.52446L41.905 3.52446L41.905 1.66829C41.905 1.46326 42.0712 1.29706 42.2762 1.29706C42.4812 1.29706 42.6474 1.46326 42.6474 1.66829L42.6474 3.22747Z" fill="#F1EEE0"/>
<path d="M42.6474 3.22747L61.8773 3.22747L60.1253 4.21579C59.3756 4.63869 58.5294 4.8609 57.6687 4.8609L42.6474 4.8609M42.6474 3.22747L42.6474 4.8609M42.6474 3.22747L42.6474 1.66829C42.6474 1.46326 42.4812 1.29706 42.2762 1.29706C42.0712 1.29706 41.905 1.46326 41.905 1.66829L41.905 3.52446M42.6474 4.8609L42.6474 6.49432C42.6474 6.69935 42.4812 6.86555 42.2762 6.86555C42.0712 6.86555 41.905 6.69935 41.905 6.49432L41.905 4.56391M41.905 4.56391L41.905 3.52446M41.905 4.56391L36.8562 4.56391L36.8562 3.52446L41.905 3.52446" stroke="#F1EEE0"/>
<path d="M37.0244 4.0437C37.0244 4.46449 36.6834 4.80614 36.2627 4.8064C35.8417 4.8064 35.5 4.46465 35.5 4.0437C35.5003 3.62297 35.8419 3.28198 36.2627 3.28198C36.6833 3.28224 37.0242 3.62313 37.0244 4.0437Z" fill="#F1EEE0" stroke="#F1EEE0"/>
<circle cx="42.2761" cy="6.4943" r="0.5" transform="rotate(90 42.2761 6.4943)" fill="#F1EEE0" stroke="#F1EEE0" stroke-width="0.484933"/>
<circle cx="42.2762" cy="1.74253" r="0.5" transform="rotate(90 42.2762 1.74253)" fill="#F1EEE0" stroke="#F1EEE0" stroke-width="0.484933"/>
</svg>
