<svg width="25" height="25" viewBox="0 0 25 25" fill="none" xmlns="http://www.w3.org/2000/svg">
<path d="M2 0H4.60417V25H2V0Z" fill="#25241F"/>
<path d="M4.60414 1.82292H20.2292V3.38542H4.60414V1.82292Z" fill="#25241F"/>
<path d="M7.49766 3.12499H8.65507V5.98957H7.49766V3.12499Z" fill="#25241F"/>
<path d="M17.0463 3.12499H18.2037V5.98957H17.0463V3.12499Z" fill="#25241F"/>
<path fill-rule="evenodd" clip-rule="evenodd" d="M19.3611 5.20834H6.05094V10.5324C6.05094 14.2079 9.03053 17.1875 12.706 17.1875C16.3815 17.1875 19.3611 14.2079 19.3611 10.5324V5.20834ZM17.0001 7.5H8.66671V10.8333C8.66671 13.1345 10.5322 15 12.8334 15C15.1346 15 17.0001 13.1345 17.0001 10.8333V7.5Z" fill="#25241F"/>
</svg>
