<svg width="249" height="52" viewBox="0 0 249 52" fill="none" xmlns="http://www.w3.org/2000/svg">
<path d="M219.647 5.1507C214.211 5.1507 216.385 2.62982 216.929 0.968018C218.32 0.27965 222.67 0 224.247 0C225.175 0 225.639 0.322673 225.639 0.968018V39.6242C225.639 40.5277 225.801 41.1731 226.126 41.5603C226.497 41.9475 226.826 42.4597 227.8 42.4597C227.847 43.5783 227.865 44.1201 227.17 44.7225C226.52 45.3248 225.546 45.6259 224.247 45.6259C222.949 45.6259 221.974 45.2602 221.325 44.5289C220.722 43.7975 220.421 42.5928 220.421 40.9149L219.647 5.1507Z" fill="#25241F"/>
<path d="M219.647 40.5772C219.647 42.3189 218.71 43.6667 216.837 44.6205C214.964 45.5328 212.564 45.9889 209.637 45.9889C206.768 45.9889 204.456 45.4706 202.7 44.4339C201.002 43.3557 200.153 41.925 200.153 40.1418V18.6194H197.36C196.95 17.5412 196.817 16.9191 196.817 16.1312C196.817 15.3019 197.197 14.8872 197.958 14.8872H200.329L201.558 9.04002C201.792 8.12771 202.875 7.67155 204.807 7.67155C205.392 7.67155 206.036 7.71302 206.739 7.79595V14.8872H214.378L218.944 14.5761C219.237 15.6543 219.383 16.6081 219.383 17.4375C219.383 18.2254 219.003 18.6194 218.242 18.6194H206.739V39.3954C206.739 40.2662 207.032 40.9505 207.617 41.4481C208.261 41.9042 209.051 42.1323 209.988 42.1323C212.154 42.1323 212.15 41.1163 212.15 39.0844L209.712 29.9539C210.473 29.8295 211.234 29.7673 211.995 29.7673C212.814 29.7673 213.575 29.8503 214.278 30.0162C215.683 30.265 216.385 30.7419 216.385 31.4468L219.647 40.5772Z" fill="#25241F"/>
<path d="M200.078 40.5772C200.078 42.3189 199.141 43.6667 197.268 44.6205C195.395 45.5328 192.995 45.9889 190.068 45.9889C187.199 45.9889 184.887 45.4706 183.131 44.4339C181.433 43.3557 180.584 41.925 180.584 40.1418V18.6194L177.862 18.9304C177.453 17.8522 177.248 16.9191 177.248 16.1312C177.248 15.3019 177.628 14.8872 178.389 14.8872H180.76L181.989 9.04002C182.224 8.12771 183.306 7.67155 185.238 7.67155C185.824 7.67155 186.468 7.71302 187.17 7.79595V14.8872H199.815C200.107 15.9654 199.815 16.6081 199.815 17.4375C199.815 18.2254 199.434 18.6194 198.673 18.6194H187.17V39.3954C187.17 40.2662 187.463 40.9505 188.048 41.4481C188.692 41.9042 189.482 42.1323 190.419 42.1323C192.585 42.1323 192.581 41.1163 192.581 39.0844L190.143 29.9539C190.904 29.8295 191.665 29.7673 192.426 29.7673C193.246 29.7673 194.007 29.8503 194.709 30.0162C196.114 30.265 196.817 30.7419 196.817 31.4468L200.078 40.5772Z" fill="#25241F"/>
<path d="M174.349 17.0927C174.349 16.17 171.798 14.4466 171.045 13.9392C170.292 13.3855 169.351 13.1087 168.221 13.1087C165.899 13.1087 164.738 15.8405 164.738 17.2707V27.1664L169.256 24.6751C171.202 23.6141 174.349 20.4144 174.349 17.0927ZM157.679 39.1381V17.4783C157.679 12.9572 161.287 10.6966 168.503 10.6966C175.782 10.6966 179.422 13.234 179.422 18.3087C179.422 20.3386 178.92 22.207 177.916 23.9139C176.912 25.6209 175.531 26.9126 173.774 27.7892L164.738 32.3564V38.6537C164.738 40.5913 165.962 41.5601 168.409 41.5601C170.919 41.5601 171.812 40.822 171.812 38.6537V36.9138L170.805 31.4469C171.621 31.3085 172.436 31.2393 173.252 31.2393C174.131 31.2393 174.946 31.3316 175.699 31.5161C177.205 31.7929 177.958 32.3235 177.958 33.1077L179.046 40.1069C179.046 41.9522 178.041 43.4055 176.033 44.4665C174.088 45.4815 171.484 45.9889 168.221 45.9889C161.193 45.9889 157.679 43.7053 157.679 39.1381Z" fill="#25241F"/>
<path d="M243.927 17.0927C243.927 16.17 241.376 14.4466 240.623 13.9392C239.87 13.3855 238.929 13.1087 237.799 13.1087C235.477 13.1087 234.316 15.8405 234.316 17.2707V27.1664L238.834 24.6751C240.78 23.6141 243.927 20.4144 243.927 17.0927ZM227.257 39.1381V17.4783C227.257 12.9572 230.865 10.6966 238.081 10.6966C245.36 10.6966 249 13.234 249 18.3087C249 20.3386 248.498 22.207 247.494 23.9139C246.49 25.6209 245.109 26.9126 243.352 27.7892L234.316 32.3564V38.6537C234.316 40.5913 235.54 41.5601 237.987 41.5601C240.497 41.5601 241.39 40.822 241.39 38.6537V36.9138L240.383 31.4469C241.199 31.3085 242.014 31.2393 242.83 31.2393C243.709 31.2393 244.524 31.3316 245.277 31.5161C246.783 31.7929 247.536 32.3235 247.536 33.1077L248.624 40.1069C248.624 41.9522 247.619 43.4055 245.611 44.4665C243.666 45.4815 241.062 45.9889 237.799 45.9889C230.771 45.9889 227.257 43.7053 227.257 39.1381Z" fill="#25241F"/>
<path d="M132.131 4.64649C130.553 4.64649 127.628 5.79723 127.628 7.87322V38.9977L127.782 49.5182C126.695 51.0307 125.848 52.8794 123.433 51.5349C122.498 51.5349 120.703 49.3053 120.703 48.5434L115.267 8.14211C115.267 7.15617 115.034 6.46152 114.566 6.05818C114.099 5.61003 113.251 5.38595 112.024 5.38595C111.965 4.22074 112.374 3.30202 113.251 2.62978C114.128 1.95755 118.792 1.62143 120.72 1.62143C122.649 1.62143 124.022 2.36089 124.841 3.83981C127.12 2.36089 129.457 1.62143 131.854 1.62143C135.419 1.62143 137.873 2.47293 139.217 4.17593C141.613 2.47293 144.126 1.62143 146.756 1.62143C152.542 1.62143 155.435 3.8174 155.435 8.20934C155.596 20.8301 155.505 38.4263 154.961 41.4514C154.417 44.4764 151.635 51.5349 147.894 51.5349C144.797 51.5349 146.335 44.4428 146.335 41.3505V8.61268C146.335 6.90968 145.282 4.64649 143.002 4.64649C141.191 4.64649 140.828 6.15902 140.532 7.73877V40.9472C140.284 43.9722 138.952 47.5015 137.023 47.5015C136.088 47.5015 135.936 45.4848 135.392 42.9639L133.607 8.61268C133.607 6.93162 132.986 4.64649 132.131 4.64649Z" fill="#25241F"/>
<path d="M83.1375 14.7114C82.0714 14.7114 80.0956 15.4715 80.0956 16.8427V37.4008L80.1994 44.3497C79.4649 45.3487 78.8929 46.5698 77.2613 45.6817C76.6295 45.6817 75.4165 44.2091 75.4165 43.7059L73.9475 17.0203C73.9475 16.3691 73.7895 15.9103 73.4736 15.6438C73.1577 15.3478 72.5852 15.1998 71.756 15.1998C71.7165 14.4302 71.9929 13.8234 72.5852 13.3793C73.1775 12.9353 74.1251 12.7133 75.4282 12.7133C76.7312 12.7133 77.6591 13.2017 78.2119 14.1786C79.7519 13.2017 81.3313 12.7133 82.9502 12.7133C85.3589 12.7133 87.0173 13.2757 87.9255 14.4006C89.5444 13.2757 91.2423 12.7133 93.0192 12.7133C96.9283 12.7133 98.8828 14.1638 98.8828 17.0647C98.9917 25.4009 98.9299 37.0234 98.5627 39.0215C98.1954 41.0195 96.3153 45.6817 93.7882 45.6817C91.6955 45.6817 92.7347 40.9973 92.7347 38.9548V17.3311C92.7347 16.2063 92.0228 14.7114 90.4828 14.7114C89.2588 14.7114 89.0138 15.7104 88.8139 16.7539V38.6884C88.6465 40.6865 87.7459 43.0176 86.4429 43.0176C85.8111 43.0176 85.7084 41.6856 85.3411 40.0205L84.1348 17.3311C84.1348 16.2208 83.7156 14.7114 83.1375 14.7114Z" fill="#25241F"/>
<path d="M66.3507 13.2175C64.26 13.2175 63.2146 12.7777 63.2146 10.3319C63.2146 7.8861 64.26 8.17573 66.3507 8.17573C68.4414 8.17573 69.4868 7.8861 69.4868 10.3319C69.4868 12.7777 68.4414 13.2175 66.3507 13.2175ZM60.7417 13.8075C60.7417 13.8075 67.5268 14.9017 69.6395 13.8075C71.7523 12.7133 68.035 40.0032 68.035 40.0032C68.035 40.9043 68.2052 41.5479 68.5455 41.9341C68.9345 42.3203 69.6395 42.5134 70.6606 42.5134C70.7092 43.629 70.3689 44.4872 69.6395 45.0879C68.9588 45.6886 67.9378 45.989 66.5763 45.989C65.2149 45.989 64.1939 45.6242 63.5132 44.8948C62.8811 44.1653 62.565 42.9639 62.565 41.2905V18.7634L60.3041 17.9911C59.9638 16.8755 59.7936 15.91 59.7936 15.0947C59.7936 14.2366 60.1096 13.8075 60.7417 13.8075Z" fill="#25241F"/>
<path d="M47.0204 40.6867C47.0204 42.2844 47.217 43.6159 47.6102 44.681C45.9251 44.8807 44.0996 44.9806 42.1337 44.9806C41.1788 44.9806 40.7014 44.7309 40.7014 44.2317L40.0021 17.3567C40.0021 16.6577 39.7774 16.1584 39.328 15.8588C38.9348 15.5593 38.1485 15.4095 36.9689 15.4095C36.9127 14.544 37.2778 13.8783 38.0642 13.4123C38.9068 12.9463 40.0863 12.7133 41.6029 12.7133C43.8497 12.7133 45.2539 13.379 45.8156 14.7105C47.2198 13.379 49.2138 12.7133 51.7976 12.7133C56.4035 12.7133 58.7064 14.0281 58.7064 16.6577L57.6193 21.6506C57.6193 22.2165 56.9452 22.5993 55.5972 22.799C54.9231 22.9321 54.1929 22.9987 53.4066 22.9987C52.6764 22.9987 51.9462 22.9488 51.216 22.8489C51.3845 22.1166 52.5559 21.3344 52.5559 20.5023V17.9559C52.5559 16.8574 51.7133 16.3082 50.0283 16.3082C49.2419 16.3082 48.5117 16.5246 47.8377 16.9573C47.1636 17.39 46.6581 17.8727 46.3211 18.4052L47.0204 40.6867Z" fill="#25241F"/>
<path d="M24.894 29.7454C22.5163 29.7454 20.1387 29.8533 17.761 30.069C17.0566 28.861 16.7043 27.6746 16.7043 26.5097C16.7043 25.8194 17.3207 25.4742 18.5536 25.4742L35.3292 19.7718V39.841C35.3292 40.747 35.6814 42.0714 36.3859 42.4597C36.9633 43.9828 39.1376 45.4848 43.478 46.9973C43.478 46.9973 44.7989 49.3752 43.478 50.0224C40.7683 51.3499 38.7669 51.0307 36.3859 50.5265C32.6147 49.728 26.8753 45.3202 25.8186 43.9828C23.3529 45.3202 19.9626 50.0224 15.6476 50.0224C6.66541 50.0224 4.49109 48.1245 4.49109 43.9828L0 7.47288C0 5.31571 1.49703 3.63312 4.49109 2.4251C7.48516 1.21708 13.6662 1.62143 18.6857 1.62143C23.7932 1.62143 27.844 3.19065 30.8381 4.31238C33.8321 5.39096 35.3292 6.81469 35.3292 8.58358V15.9611C35.3292 16.7377 34.1844 17.277 31.8948 17.579C30.6619 17.7516 29.4291 17.8378 28.1962 17.8378C26.9634 17.8378 25.7305 17.7731 24.4977 17.6437C24.7619 16.6083 24.894 15.5081 24.894 14.3432V9.48959C24.894 8.66986 24.3216 8.04428 23.1768 7.61285C22.032 7.13827 20.535 6.90098 18.6857 6.90098C16.8364 6.90098 15.3394 7.13827 14.1946 7.61285C13.1379 8.04428 12.6095 8.66986 12.6095 9.48959V39.388C12.6095 40.9412 14.1946 41.7177 17.3648 41.7177C20.623 41.7177 23.1327 40.9627 24.894 39.4527V29.7454Z" fill="#25241F"/>
</svg>
