<svg width="130" height="16" viewBox="0 0 130 16" fill="none" xmlns="http://www.w3.org/2000/svg">
<path d="M41.6474 7.22753L60.8773 7.22753L59.1253 8.21585C58.3756 8.63875 57.5294 8.86096 56.6687 8.86096L41.6474 8.86096L41.6474 10.4944C41.6474 10.6994 41.4812 10.8656 41.2762 10.8656C41.0712 10.8656 40.905 10.6994 40.905 10.4944L40.905 8.56397L35.8562 8.56397L35.8562 7.52452L40.905 7.52452L40.905 5.66835C40.905 5.46332 41.0712 5.29712 41.2762 5.29712C41.4812 5.29712 41.6474 5.46333 41.6474 5.66835L41.6474 7.22753Z" fill="#25241F"/>
<path d="M41.6474 7.22753L60.8773 7.22753L59.1253 8.21585C58.3756 8.63875 57.5294 8.86096 56.6687 8.86096L41.6474 8.86096M41.6474 7.22753L41.6474 8.86096M41.6474 7.22753L41.6474 5.66835C41.6474 5.46333 41.4812 5.29712 41.2762 5.29712C41.0712 5.29712 40.905 5.46332 40.905 5.66835L40.905 7.52452M41.6474 8.86096L41.6474 10.4944C41.6474 10.6994 41.4812 10.8656 41.2762 10.8656C41.0712 10.8656 40.905 10.6994 40.905 10.4944L40.905 8.56397M40.905 8.56397L40.905 7.52452M40.905 8.56397L35.8562 8.56397L35.8562 7.52452L40.905 7.52452" stroke="#25241F"/>
<ellipse cx="35.2622" cy="8.04424" rx="1.26219" ry="1.26219" transform="rotate(90 35.2622 8.04424)" fill="#25241F"/>
<circle cx="41.2761" cy="10.4944" r="0.742466" transform="rotate(90 41.2761 10.4944)" fill="#25241F"/>
<circle cx="41.2762" cy="5.74259" r="0.742466" transform="rotate(90 41.2762 5.74259)" fill="#25241F"/>
<path d="M24.2298 7.22747L4.99994 7.22747L6.75196 8.21579C7.50165 8.63869 8.34782 8.8609 9.20856 8.8609L24.2298 8.8609L24.2298 10.4943C24.2298 10.6993 24.396 10.8656 24.601 10.8656C24.8061 10.8656 24.9723 10.6993 24.9723 10.4943L24.9723 8.56391L30.0211 8.56391L30.0211 7.52446L24.9723 7.52446L24.9723 5.66829C24.9723 5.46326 24.8061 5.29706 24.601 5.29706C24.396 5.29706 24.2298 5.46326 24.2298 5.66829L24.2298 7.22747Z" fill="#25241F"/>
<path d="M24.2298 7.22747L4.99994 7.22747L6.75196 8.21579C7.50165 8.63869 8.34782 8.8609 9.20856 8.8609L24.2298 8.8609M24.2298 7.22747L24.2298 8.8609M24.2298 7.22747L24.2298 5.66829C24.2298 5.46326 24.396 5.29706 24.601 5.29706C24.8061 5.29706 24.9723 5.46326 24.9723 5.66829L24.9723 7.52446M24.2298 8.8609L24.2298 10.4943C24.2298 10.6993 24.396 10.8656 24.601 10.8656C24.8061 10.8656 24.9723 10.6993 24.9723 10.4943L24.9723 8.56391M24.9723 8.56391L24.9723 7.52446M24.9723 8.56391L30.0211 8.56391L30.0211 7.52446L24.9723 7.52446" stroke="#25241F"/>
<ellipse cx="1.26219" cy="1.26219" rx="1.26219" ry="1.26219" transform="matrix(5.25213e-08 1 1 -3.49015e-08 29.3528 6.78198)" fill="#25241F"/>
<circle cx="0.742466" cy="0.742466" r="0.742466" transform="matrix(5.25213e-08 1 1 -3.49015e-08 23.8586 9.75183)" fill="#25241F"/>
<circle cx="0.742466" cy="0.742466" r="0.742466" transform="matrix(5.25213e-08 1 1 -3.49015e-08 23.8586 5.00006)" fill="#25241F"/>
<path d="M87.2298 7.22753L67.9999 7.22753L69.752 8.21585C70.5016 8.63875 71.3478 8.86096 72.2086 8.86096L87.2298 8.86096L87.2298 10.4944C87.2298 10.6994 87.396 10.8656 87.601 10.8656C87.8061 10.8656 87.9723 10.6994 87.9723 10.4944L87.9723 8.56397L93.0211 8.56397L93.0211 7.52452L87.9723 7.52452L87.9723 5.66835C87.9723 5.46332 87.8061 5.29712 87.601 5.29712C87.396 5.29712 87.2298 5.46333 87.2298 5.66835L87.2298 7.22753Z" fill="#25241F"/>
<path d="M87.2298 7.22753L67.9999 7.22753L69.752 8.21585C70.5016 8.63875 71.3478 8.86096 72.2086 8.86096L87.2298 8.86096M87.2298 7.22753L87.2298 8.86096M87.2298 7.22753L87.2298 5.66835C87.2298 5.46333 87.396 5.29712 87.601 5.29712C87.8061 5.29712 87.9723 5.46332 87.9723 5.66835L87.9723 7.52452M87.2298 8.86096L87.2298 10.4944C87.2298 10.6994 87.396 10.8656 87.601 10.8656C87.8061 10.8656 87.9723 10.6994 87.9723 10.4944L87.9723 8.56397M87.9723 8.56397L87.9723 7.52452M87.9723 8.56397L93.0211 8.56397L93.0211 7.52452L87.9723 7.52452" stroke="#25241F"/>
<ellipse cx="1.26219" cy="1.26219" rx="1.26219" ry="1.26219" transform="matrix(5.25213e-08 1 1 -3.49015e-08 92.3528 6.78204)" fill="#25241F"/>
<circle cx="0.742466" cy="0.742466" r="0.742466" transform="matrix(5.25213e-08 1 1 -3.49015e-08 86.8586 9.75189)" fill="#25241F"/>
<circle cx="0.742466" cy="0.742466" r="0.742466" transform="matrix(5.25213e-08 1 1 -3.49015e-08 86.8586 5.00012)" fill="#25241F"/>
<path d="M105.647 7.22753L124.877 7.22753L123.125 8.21585C122.376 8.63875 121.529 8.86096 120.669 8.86096L105.647 8.86096L105.647 10.4944C105.647 10.6994 105.481 10.8656 105.276 10.8656C105.071 10.8656 104.905 10.6994 104.905 10.4944L104.905 8.56397L99.8562 8.56397L99.8562 7.52452L104.905 7.52452L104.905 5.66835C104.905 5.46332 105.071 5.29712 105.276 5.29712C105.481 5.29712 105.647 5.46333 105.647 5.66835L105.647 7.22753Z" fill="#25241F"/>
<path d="M105.647 7.22753L124.877 7.22753L123.125 8.21585C122.376 8.63875 121.529 8.86096 120.669 8.86096L105.647 8.86096M105.647 7.22753L105.647 8.86096M105.647 7.22753L105.647 5.66835C105.647 5.46333 105.481 5.29712 105.276 5.29712C105.071 5.29712 104.905 5.46332 104.905 5.66835L104.905 7.52452M105.647 8.86096L105.647 10.4944C105.647 10.6994 105.481 10.8656 105.276 10.8656C105.071 10.8656 104.905 10.6994 104.905 10.4944L104.905 8.56397M104.905 8.56397L104.905 7.52452M104.905 8.56397L99.8562 8.56397L99.8562 7.52452L104.905 7.52452" stroke="#25241F"/>
<ellipse cx="99.2622" cy="8.04424" rx="1.26219" ry="1.26219" transform="rotate(90 99.2622 8.04424)" fill="#25241F"/>
<circle cx="105.276" cy="10.4944" r="0.742466" transform="rotate(90 105.276 10.4944)" fill="#25241F"/>
<circle cx="105.276" cy="5.74259" r="0.742466" transform="rotate(90 105.276 5.74259)" fill="#25241F"/>
</svg>
